<svg x="0" y="0" width="700" height="350" viewBox="0 0 700 350" xmlns="http://www.w3.org/2000/svg" xmlns:xlink="http://www.w3.org/1999/xlink" xmlns:fi="http://pattern.flaticon.com/"><rect x="0px" y="0px" width="100%" height="100%" opacity="1" fill="#ffffff"/><defs><g transform="matrix(-1.1538461446762085 0 0 1.1538461446762085 141 70)" id="L1_396"><path d="M21.326,39.188C21.35,39.269,21.234,39.164,21.326,39.188c-0.009-0.031-0.017-0.058-0.025-0.088   L12.5,35.188c-0.262,1.899-0.936,3.226-1.658,4.145L10.5,40.188c0,0,6.698,5.367,12.261,6.812L21.326,39.188z" fill="#8c1e18"/><path d="M39.5,35.498l-6.844,3.422c-0.052,0.192-0.1,0.376-0.156,0.578L31.255,47   c5.156-1.78,10.245-6.502,10.245-6.502l-0.342-0.855C40.436,38.724,39.762,37.397,39.5,35.498z" fill="#8c1e18"/><path d="M26,0C14.678,0,5.5,9.178,5.5,20.5c0,9.437,6.321,17.115,15,19.5h11.81   c8.232-2.663,14.19-10.381,14.19-19.5C46.5,9.178,37.322,0,26,0z" fill="#cb2110"/><path d="M5.5,20.5c0-0.208,0.025-0.41,0.031-0.616L5.5,19l-3.456,3.07c-1,1.25-1.544,2.802-1.544,4.403   v4.179c0,2.186,0.432,4.368,1.406,6.325C3.013,39.2,4.986,41.625,8.5,43c0,0,3.333-1.167,4-6l-0.099-1.189   C8.176,32.055,5.5,26.597,5.5,20.5z" fill="#aa2922"/><rect x="25px" y="0px" width="2px" height="15px" fill="#aa2922"/><path d="M46.5,20.5c0-0.208-0.025-0.41-0.031-0.616L46.5,19l3.456,3.07c1,1.25,1.544,2.802,1.544,4.403   v4.179c0,2.186-0.432,4.368-1.406,6.325C48.987,39.2,47.014,41.625,43.5,43c0,0-3.333-1.167-4-6l0.099-1.189   C43.824,32.055,46.5,26.597,46.5,20.5z" fill="#aa2922"/><path d="M40.279,5.807l-4.486,4.486C35.605,10.48,35.5,10.735,35.5,11v11h2V11.414l4.145-4.145   C41.214,6.759,40.757,6.272,40.279,5.807z" fill="#aa2922"/><path d="M10.831,6.745l4.669,4.669V20h2v-9c0-0.265-0.105-0.52-0.293-0.707l-4.962-4.962   C11.751,5.78,11.28,6.251,10.831,6.745z" fill="#aa2922"/><path d="M46.091,16.42L33.5,19l-2-4h-5h-5l-2,4L5.909,16.42C5.642,17.739,5.5,19.103,5.5,20.5   c0,1.46,0.158,2.881,0.448,4.255L6.5,25.137C20.447,34.792,17.583,28.041,21.326,41c0.024,0.081-0.092-0.024,0,0l1.807,9.842   C23.245,51.51,23.823,52,24.5,52h5c0.677,0,1.255-0.49,1.367-1.158L32.5,41c3.362-12.087-1.284-5.974,13-15.863l0.552-0.382   c0.29-1.373,0.448-2.795,0.448-4.255C46.5,19.103,46.358,17.739,46.091,16.42z" fill="#6ac724"/><path d="M19.5,28c-0.256,0-0.512-0.098-0.707-0.293c-0.391-0.391-0.391-1.023,0-1.414l6-6   c0.391-0.391,1.023-0.391,1.414,0s0.391,1.023,0,1.414l-6,6C20.012,27.902,19.756,28,19.5,28z" fill="#f0f028"/><path d="M24.5,28c-0.256,0-0.512-0.098-0.707-0.293c-0.391-0.391-0.391-1.023,0-1.414l3-3   c0.391-0.391,1.023-0.391,1.414,0s0.391,1.023,0,1.414l-3,3C25.012,27.902,24.756,28,24.5,28z" fill="#f0f028"/><path d="M51.426,32.107c0.044-0.484,0.074-0.969,0.074-1.456v-0.647c-0.124,0-0.25,0.019-0.371,0.067   l-5.304,2.122l-5.155,8.248c0.38,0.626,0.799,1.109,1.199,1.48c0.19-0.076,0.362-0.204,0.479-0.391l4.827-7.723L51.426,32.107z" fill="#3a3534"/><path d="M6.175,32.193l-5.303-2.122c-0.122-0.049-0.248-0.068-0.372-0.068v0.648   c0,0.487,0.03,0.972,0.074,1.456l4.252,1.7l4.827,7.723c0.117,0.187,0.289,0.315,0.479,0.391c0.399-0.371,0.818-0.854,1.199-1.48   L6.175,32.193z" fill="#3a3534"/></g><g transform="matrix(1.25 0 0 1.25 257 245)" id="L1_397"><path d="M24,2.5C12.127,2.5,0,17.75,0,30.937c0,1.37,1.027,2.563,2.397,2.563h2.665   c0.072-0.379,0.158-0.76,0.277-1.145c0.416-1.346,1.461-2.47,2.837-2.775c1.041-0.231,2.236-0.031,3.057,1.534   c0.389,0.74,0.452,1.61,0.211,2.386h25.113c-0.241-0.776-0.178-1.646,0.211-2.386c0.822-1.565,2.017-1.765,3.057-1.534   c1.376,0.306,2.421,1.429,2.837,2.775c0.119,0.384,0.204,0.765,0.277,1.145h2.797C47.06,33.5,48,32.375,48,31.049   C48,18.667,35.909,2.5,24,2.5z" fill="#40c7a9"/><path d="M14.229,30.5c-0.095-0.267-0.209-0.528-0.341-0.78c-1.073-2.046-2.902-3.22-5.019-3.22   c-0.44,0-0.893,0.051-1.346,0.151c-1.918,0.426-3.557,1.727-4.509,3.513C3.482,18.471,14.399,5.5,24,5.5   c9.853,0,20.387,14.161,20.975,24.645c-0.953-1.776-2.587-3.069-4.5-3.494C40.022,26.551,39.57,26.5,39.13,26.5   c-2.116,0-3.945,1.174-5.019,3.221c-0.133,0.251-0.246,0.512-0.341,0.779H14.229z" fill="#c1f4e8"/><path d="M9,45.5c0,0-5.798-6.231-3.662-13.145c0.416-1.347,1.461-2.47,2.837-2.775   c1.041-0.231,2.236-0.031,3.057,1.534c0.615,1.172,0.419,2.669-0.517,3.605C8.676,36.759,9,40.5,9,45.5z" fill="#211f02"/><path d="M21,33.5c-2.844,1.781-3,10-3,10c-4.313-4.25-3-10-3-10H21z" fill="#211f02"/><path d="M39,45.5c0,0,5.798-6.231,3.662-13.145c-0.416-1.347-1.461-2.47-2.837-2.775   c-1.041-0.231-2.236-0.031-3.057,1.534c-0.615,1.172-0.419,2.669,0.517,3.605C39.324,36.759,39,40.5,39,45.5z" fill="#211f02"/><path d="M27,33.5c2.844,1.781,3,10,3,10c4.313-4.25,3-10,3-10H27z" fill="#211f02"/><ellipse cx="24px" cy="12px" rx="5px" ry="5px" fill="#e64c3c"/><ellipse cx="31px" cy="24px" rx="5px" ry="5px" fill="#e64c3c"/><ellipse cx="17px" cy="24px" rx="5px" ry="5px" fill="#e64c3c"/><path d="M28.993,11.845C28.994,11.897,29,11.948,29,12c0,3.038-2.239,5.5-5,5.5s-5-2.462-5-5.5   c0-0.052,0.006-0.103,0.007-0.155C16.592,13.28,15,15.724,15,18.5c0,0.151,0.016,0.298,0.025,0.447   C15.631,18.66,16.298,18.5,17,18.5c2.761,0,5,2.462,5,5.5c0,0.782-0.151,1.525-0.419,2.199C22.352,26.39,23.161,26.5,24,26.5   s1.648-0.11,2.419-0.301C26.151,25.525,26,24.782,26,24c0-3.038,2.239-5.5,5-5.5c0.702,0,1.369,0.16,1.975,0.447   C32.984,18.798,33,18.651,33,18.5C33,15.724,31.408,13.28,28.993,11.845z" fill="#c03a2b"/></g><g transform="matrix(1.3043478727340698 0 0 1.3043478727340698 81 244.0000762939453)" id="L1_399"><path d="M41.183,32.615c-0.653,0-1.183-0.529-1.183-1.183v0c0-1.556-1.261-2.817-2.817-2.817H23H8.817   C7.261,28.615,6,29.877,6,31.433v0c0,0.653-0.529,1.183-1.183,1.183H2.325C2.115,33.284,2,33.861,2,34.615v0.36   c0,5.302,4.338,9.64,9.64,9.64h22.705c5.302,0,9.64-4.338,9.64-9.64v-0.36c0-0.755-0.115-1.331-0.325-2H41.183z" fill="#f2d5a5"/><path d="M31.651,28.615c0.853-1.472,1.349-3.176,1.349-5c0-5.523-4.477-10-10-10s-10,4.477-10,10   c0,1.824,0.496,3.528,1.349,5H23H31.651z" fill="#ecf0f1"/><path d="M45.842,28.376c-0.536-7.369-2.456-12.784-4.978-16.76c-1.77,1.804-2.864,4.273-2.864,7   C38,23.396,41.357,27.388,45.842,28.376z" fill="#ecf0f1"/><path d="M36.825,6.734c-2.522-2.328-5.501-3.888-8.637-4.706C28.069,2.539,28,3.069,28,3.615   c0,3.866,3.134,7,7,7c1.559,0,2.994-0.516,4.158-1.378C38.405,8.31,37.625,7.473,36.825,6.734z" fill="#ecf0f1"/><path d="M7.248,8.745c1.249,1.158,2.915,1.871,4.752,1.871c3.866,0,7-3.134,7-7   c0-0.625-0.09-1.228-0.244-1.805c-3.481,0.734-6.808,2.364-9.581,4.924C8.519,7.341,7.874,8.013,7.248,8.745z" fill="#ecf0f1"/><path d="M8,18.615c0-2.727-1.094-5.196-2.864-7c-2.521,3.976-4.442,9.391-4.978,16.76   C4.643,27.388,8,23.396,8,18.615z" fill="#ecf0f1"/><path d="M17.5,36.615L17.5,36.615c-1.381,0-2.5-1.119-2.5-2.5v-5.5h5v5.5   C20,35.496,18.881,36.615,17.5,36.615z" fill="#140100"/><path d="M28.5,36.615L28.5,36.615c-1.381,0-2.5-1.119-2.5-2.5v-5.5h5v5.5   C31,35.496,29.881,36.615,28.5,36.615z" fill="#140100"/><path d="M38,18.615c0-2.719,1.089-5.181,2.85-6.984c-0.542-0.855-1.102-1.667-1.692-2.394    c-1.163,0.862-2.599,1.378-4.158,1.378c-3.866,0-7-3.134-7-7c0-0.54,0.068-1.062,0.184-1.567C25.1,1.244,21.871,1.171,18.76,1.828    C18.911,2.399,19,2.996,19,3.615c0,3.866-3.134,7-7,7c-1.837,0-3.503-0.713-4.752-1.871c-0.737,0.861-1.443,1.82-2.11,2.873    C6.906,13.422,8,15.89,8,18.615c0,4.778-3.354,8.768-7.834,9.758C0.062,29.721,0,31.126,0,32.615h4.817    C5.471,32.615,6,32.086,6,31.433c0-1.556,1.261-2.817,2.817-2.817h5.531c-0.853-1.472-1.349-3.176-1.349-5c0-5.523,4.477-10,10-10    s10,4.477,10,10c0,1.824-0.496,3.528-1.349,5h5.531c1.556,0,2.817,1.261,2.817,2.817c0,0.653,0.529,1.183,1.183,1.183H46    c0-1.488-0.061-2.894-0.164-4.241C41.355,27.384,38,23.395,38,18.615z" fill="#bc1c05"/></g><g transform="matrix(0.125 0 0 0.125 257 71)" id="L1_400"><rect x="80px" y="128px" width="320px" height="352px" fill="#3eb500"/><g><path d="M384,128 80,128 80,176.8 384,480 400,480 400,140.8z" fill="#3da004"/><rect x="240px" y="128px" width="160px" height="352px" fill="#3da004"/></g><path d="M400,158.4 310.4,128 80,128 80,176.8 86.4,180.8 400,292.8z" fill="#398c03"/><path d="M448,160.8c0,8-14.4,15.2-23.2,15.2H47.2c-8,0-15.2-6.4-15.2-15.2V15.2C32,6.4,38.4,0,47.2,0h385.6  c8,0,15.2,6.4,15.2,15.2L448,160.8L448,160.8z" fill="#4cce00"/><path d="M448,16v148.8c0,8-10.4,19.2-19.2,19.2H51.2c-8,0-19.2-10.4-19.2-19.2V16" fill="#3eb500"/><path d="M36,16l391.2,164c8,0,20.8-6.4,20.8-15.2V16H36z" fill="#49ad09"/><path d="M32,152v12.8c0,8,10.4,19.2,19.2,19.2h377.6c8,0,19.2-10.4,19.2-19.2V152H32z" fill="#3da004"/><g><path d="M56,104.8c0,4-1.6,7.2-4,7.2l0,0c-2.4,0-4-3.2-4-7.2V47.2c0-4,1.6-7.2,4-7.2l0,0c2.4,0,4,3.2,4,7.2   V104.8z" fill="#4cce00"/><path d="M120,296.8c0,4-3.2,7.2-7.2,7.2h-2.4c-4,0-7.2-3.2-7.2-7.2v-58.4c0-4,3.2-7.2,7.2-7.2h2.4   c4,0,7.2,3.2,7.2,7.2V296.8z" fill="#4cce00"/><path d="M120,392.8c0,4-3.2,7.2-7.2,7.2h-2.4c-4,0-7.2-3.2-7.2-7.2v-58.4c0-4,3.2-7.2,7.2-7.2h2.4   c4,0,7.2,3.2,7.2,7.2V392.8z" fill="#4cce00"/><circle cx="52" cy="129" r="7" fill="#4cce00"/></g></g><g transform="matrix(0.06501933187246323 0.021673109382390976 -0.021673109382390976 0.06501933187246323 13.90329360961914 171.80650329589844)" id="L1_403"><path d="M59.074,472.615V196.927C59.074,88.167,147.242,0,256,0h0.003  c108.76,0,196.927,88.167,196.927,196.927v273.116v1.259c0,18.328-11.934,35.343-29.771,39.562  c-25.596,6.056-48.422-12.877-48.989-37.314c-0.456-19.688-14.642-37.471-34.172-39.98c-23.321-2.999-43.312,14.423-44.549,36.844  c-1.111,20.14-14.226,38.687-34.232,41.255c-23.317,2.992-43.301-14.429-44.538-36.848c-1.111-20.14-14.226-38.685-34.232-41.254  c-23.394-3.002-43.434,14.541-44.55,37.065c-0.979,19.716-13.674,37.891-33.186,40.89C80.188,515.287,59.074,496.417,59.074,472.615  z" fill="#e0e0e3"/><g><path d="M279.849,433.567c-23.321-2.999-43.312,14.423-44.549,36.844c-0.55,9.982-4.053,19.569-9.877,27.016   c8.224,10.124,21.368,16.09,35.792,14.239c20.007-2.568,33.121-21.115,34.232-41.255c0.479-8.675,3.774-16.594,8.974-22.879   C298.354,440.092,289.799,434.845,279.849,433.567z" fill="#c7c5cc"/><path d="M122.299,433.565c-23.394-3.002-43.434,14.541-44.55,37.065c-0.493,9.939-3.967,19.484-9.787,26.892   c8.427,10.306,21.964,16.271,36.747,13.998c19.512-2.999,32.207-21.174,33.186-40.89c0.428-8.635,3.645-16.531,8.758-22.826   C140.725,440.223,132.391,434.86,122.299,433.565z" fill="#c7c5cc"/><path d="M256.002,0h-0.001c-10.225,0-20.267,0.781-30.072,2.283   c94.485,14.478,166.854,96.109,166.854,194.644v273.116v1.259c0,9.85-3.451,19.316-9.408,26.625   c9.094,10.828,23.903,16.693,39.783,12.937c17.837-4.219,29.771-21.233,29.771-39.562v-1.259V196.927   C452.929,88.167,364.763,0,256.002,0z" fill="#c7c5cc"/></g><g><circle cx="184" cy="216" r="46" fill="#ffd92d"/><circle cx="324" cy="216" r="46" fill="#ffd92d"/></g><g><circle cx="342" cy="234" r="21" fill="#956ec4"/><circle cx="199" cy="235" r="21" fill="#956ec4"/></g></g><g transform="matrix(0.5045245289802551 -0.26235276460647583 0.26235276460647583 0.5045245289802551 174.6596221923828 14.937315940856934)" id="L1_404"><path d="M29.205,41h-2c-9.389,0-17-7.611-17-17v0h36v0C46.205,33.389,38.594,41,29.205,41z" fill="#d2b467"/><path d="M48.514,23.779C47.7,24.079,46.998,24,46.998,24h-0.793c0.264,4.298-2.331,8.393-5.628,11.807   c-6.744,6.983-18,6.983-24.743,0C12.536,32.393,9.941,28.298,10.205,24c-0.144,0-1.207,0-1.207,0s-0.485,0.06-1.116-0.093   l-0.467,4.207c-0.139,1.254-0.139,2.519,0,3.773l0.379,3.408c0.271,2.441,1.066,4.796,2.33,6.902   c0.719,1.198,1.581,2.303,2.569,3.29L21.205,54c0,0,1.327,1.529,2.817,1.954c0.091,0.026,0.183-0.048,0.183-0.143v-2.337   c0-0.814,0.66-1.474,1.474-1.474h2.526h1.526c0.814,0,1.474,0.66,1.474,1.474v2.373c0,0.083,0.069,0.154,0.152,0.149   C33.137,55.89,35.205,54,35.205,54l8.513-8.513c0.988-0.988,1.85-2.093,2.569-3.29c1.264-2.106,2.059-4.461,2.33-6.902l0.379-3.408   c0.139-1.254,0.139-2.519,0-3.773L48.514,23.779z" fill="#464f5d"/><path d="M46.573,10.206c-0.154-0.924-0.596-1.761-1.247-2.403c-0.865-0.854-1.689-1.749-2.315-2.792   l-0.835-1.392c-0.62-1.033-1.637-1.766-2.813-2.027L36.11,0.868C33.514,0.291,30.864,0,28.205,0S22.896,0.291,20.3,0.868   l-3.253,0.723c-1.176,0.261-2.193,0.994-2.813,2.027L13.399,5.01c-0.626,1.043-1.449,1.938-2.315,2.792   c-0.65,0.642-1.093,1.479-1.247,2.403L9.205,14h19h19L46.573,10.206z" fill="#464f5d"/><path d="M46.998,14l2.782,3.478c1.152,1.439,1.386,3.5,0.354,5.028C48.958,24.245,46.998,24,46.998,24h-19   h-19c0,0-1.96,0.245-3.136-1.494c-1.032-1.527-0.798-3.588,0.354-5.028L8.998,14H46.998z" fill="#4e5765"/><path d="M47.591,34.21l-9.156,7.122l-4.098,7.172c-0.274,0.479-0.107,1.09,0.372,1.364   C34.865,49.958,35.036,50,35.204,50c0.348,0,0.685-0.181,0.869-0.504l3.902-6.828l8.517-6.624c0.039-0.25,0.096-0.497,0.124-0.749   l0.125-1.126C48.395,33.945,47.936,33.943,47.591,34.21z" fill="#5c697c"/><path d="M17.926,41.279L8.76,35.168c-0.307-0.205-0.678-0.203-0.986-0.053l0.02,0.18   c0.069,0.619,0.173,1.233,0.308,1.838l8.383,5.589l3.889,5.833C20.565,48.844,20.883,49,21.206,49c0.19,0,0.383-0.054,0.554-0.168   c0.46-0.306,0.584-0.927,0.277-1.387L17.926,41.279z" fill="#5c697c"/><path d="M35.653,53.552l1.473-1.473l-6.194-11.27c-0.719,0.114-1.442,0.184-2.168,0.208L35.653,53.552z" fill="#5c697c"/><path d="M18.319,51.114l1.46,1.46l6.855-11.606c-0.714-0.065-1.421-0.182-2.124-0.335L18.319,51.114z" fill="#5c697c"/><g><path d="M41.209,8.877c-0.991-1-2.276-1.597-3.822-1.797l1.925-5.501l-1.967-0.437L32.845,14h2.12    l1.737-4.963c1.285,0.087,2.328,0.489,3.076,1.238c1.45,1.452,1.464,3.712,1.464,3.735l2,0.014    C43.243,13.898,43.246,10.932,41.209,8.877z" fill="#5c697c"/><path d="M17.275,1.54l1.76,5.574c-1.534,0.203-2.811,0.799-3.797,1.794    c-2.037,2.055-2.034,5.021-2.033,5.146l2-0.014c0-0.023,0.014-2.283,1.464-3.735c0.73-0.731,1.742-1.131,2.985-1.231L21.209,14    h2.096L19.234,1.105L17.275,1.54z" fill="#5c697c"/></g><path d="M16.52,24c2.57,8.555,6.405,14,10.685,14h2c4.28,0,8.115-5.445,10.685-14H16.52z" fill="#dfc57d"/></g><g transform="matrix(0.06501933187246323 0.021673109382390976 -0.021673109382390976 0.06501933187246323 -10.096719741821289 -21.193496704101562)"><path d="M59.074,472.615V196.927C59.074,88.167,147.242,0,256,0h0.003  c108.76,0,196.927,88.167,196.927,196.927v273.116v1.259c0,18.328-11.934,35.343-29.771,39.562  c-25.596,6.056-48.422-12.877-48.989-37.314c-0.456-19.688-14.642-37.471-34.172-39.98c-23.321-2.999-43.312,14.423-44.549,36.844  c-1.111,20.14-14.226,38.687-34.232,41.255c-23.317,2.992-43.301-14.429-44.538-36.848c-1.111-20.14-14.226-38.685-34.232-41.254  c-23.394-3.002-43.434,14.541-44.55,37.065c-0.979,19.716-13.674,37.891-33.186,40.89C80.188,515.287,59.074,496.417,59.074,472.615  z" fill="#e0e0e3"/><g><path d="M279.849,433.567c-23.321-2.999-43.312,14.423-44.549,36.844c-0.55,9.982-4.053,19.569-9.877,27.016   c8.224,10.124,21.368,16.09,35.792,14.239c20.007-2.568,33.121-21.115,34.232-41.255c0.479-8.675,3.774-16.594,8.974-22.879   C298.354,440.092,289.799,434.845,279.849,433.567z" fill="#c7c5cc"/><path d="M122.299,433.565c-23.394-3.002-43.434,14.541-44.55,37.065c-0.493,9.939-3.967,19.484-9.787,26.892   c8.427,10.306,21.964,16.271,36.747,13.998c19.512-2.999,32.207-21.174,33.186-40.89c0.428-8.635,3.645-16.531,8.758-22.826   C140.725,440.223,132.391,434.86,122.299,433.565z" fill="#c7c5cc"/><path d="M256.002,0h-0.001c-10.225,0-20.267,0.781-30.072,2.283   c94.485,14.478,166.854,96.109,166.854,194.644v273.116v1.259c0,9.85-3.451,19.316-9.408,26.625   c9.094,10.828,23.903,16.693,39.783,12.937c17.837-4.219,29.771-21.233,29.771-39.562v-1.259V196.927   C452.929,88.167,364.763,0,256.002,0z" fill="#c7c5cc"/></g><g><circle cx="184" cy="216" r="46" fill="#ffd92d"/><circle cx="324" cy="216" r="46" fill="#ffd92d"/></g><g><circle cx="342" cy="234" r="21" fill="#956ec4"/><circle cx="199" cy="235" r="21" fill="#956ec4"/></g></g><g transform="matrix(0.5943775177001953 -0.3782402276992798 0.3782402276992798 0.5943775177001953 168.79408264160156 190.73202514648438)" id="L1_405"><path d="M29,36C16.103,36,6,28.094,6,18S16.103,0,29,0s23,7.906,23,18S41.897,36,29,36z" fill="#f0c419"/><path d="M29,29c-8.371,0-15.181-5.13-15.181-10.964S20.629,7.455,29,7.455s15.181,4.746,15.181,10.581   S37.371,29,29,29z" fill="#f18d46"/><path d="M25,20c-0.553,0-1-0.448-1-1v-4c0-0.552,0.447-1,1-1s1,0.448,1,1v4C26,19.552,25.553,20,25,20z" fill="#ffffff"/><path d="M33,20c-0.553,0-1-0.448-1-1v-4c0-0.552,0.447-1,1-1s1,0.448,1,1v4C34,19.552,33.553,20,33,20z" fill="#ffffff"/><path d="M17,44L17,44c0-2.761,2.239-5,5-5h0c2.761,0,5,2.239,5,5v5h-5C19.239,49,17,46.761,17,44z" fill="#4c8056"/><path d="M41,49L41,49c0-2.761-2.239-5-5-5h0c-2.761,0-5,2.239-5,5v5h5C38.761,54,41,51.761,41,49z" fill="#4c8056"/><path d="M29,36c-0.675,0-1.341-0.027-2-0.069V58h4V35.931C30.341,35.973,29.675,36,29,36z" fill="#7ed09e"/></g></defs><g fi:class="KUsePattern" opacity="0.6"><pattern id="pattern_L1_396" width="350" height="350" patternUnits="userSpaceOnUse"><use xlink:href="#L1_396" x="-350" y="-350"/><use xlink:href="#L1_396" x="0" y="-350"/><use xlink:href="#L1_396" x="350" y="-350"/><use xlink:href="#L1_396" x="-350" y="0"/><use xlink:href="#L1_396" x="0" y="0"/><use xlink:href="#L1_396" x="350" y="0"/><use xlink:href="#L1_396" x="-350" y="350"/><use xlink:href="#L1_396" x="0" y="350"/><use xlink:href="#L1_396" x="350" y="350"/></pattern><rect x="0" y="0" width="100%" height="100%" fill="url(#pattern_L1_396)"/></g><g fi:class="KUsePattern" opacity="0.6"><pattern id="pattern_L1_397" width="350" height="350" patternUnits="userSpaceOnUse"><use xlink:href="#L1_397" x="-350" y="-350"/><use xlink:href="#L1_397" x="0" y="-350"/><use xlink:href="#L1_397" x="350" y="-350"/><use xlink:href="#L1_397" x="-350" y="0"/><use xlink:href="#L1_397" x="0" y="0"/><use xlink:href="#L1_397" x="350" y="0"/><use xlink:href="#L1_397" x="-350" y="350"/><use xlink:href="#L1_397" x="0" y="350"/><use xlink:href="#L1_397" x="350" y="350"/></pattern><rect x="0" y="0" width="100%" height="100%" fill="url(#pattern_L1_397)"/></g><g fi:class="KUsePattern" opacity="0.6"><pattern id="pattern_L1_399" width="350" height="350" patternUnits="userSpaceOnUse"><use xlink:href="#L1_399" x="-350" y="-350"/><use xlink:href="#L1_399" x="0" y="-350"/><use xlink:href="#L1_399" x="350" y="-350"/><use xlink:href="#L1_399" x="-350" y="0"/><use xlink:href="#L1_399" x="0" y="0"/><use xlink:href="#L1_399" x="350" y="0"/><use xlink:href="#L1_399" x="-350" y="350"/><use xlink:href="#L1_399" x="0" y="350"/><use xlink:href="#L1_399" x="350" y="350"/></pattern><rect x="0" y="0" width="100%" height="100%" fill="url(#pattern_L1_399)"/></g><g fi:class="KUsePattern" opacity="0.6"><pattern id="pattern_L1_400" width="350" height="350" patternUnits="userSpaceOnUse"><use xlink:href="#L1_400" x="-350" y="-350"/><use xlink:href="#L1_400" x="0" y="-350"/><use xlink:href="#L1_400" x="350" y="-350"/><use xlink:href="#L1_400" x="-350" y="0"/><use xlink:href="#L1_400" x="0" y="0"/><use xlink:href="#L1_400" x="350" y="0"/><use xlink:href="#L1_400" x="-350" y="350"/><use xlink:href="#L1_400" x="0" y="350"/><use xlink:href="#L1_400" x="350" y="350"/></pattern><rect x="0" y="0" width="100%" height="100%" fill="url(#pattern_L1_400)"/></g><g fi:class="KUsePattern" opacity="0.6"><pattern id="pattern_L1_403" width="350" height="350" patternUnits="userSpaceOnUse"><use xlink:href="#L1_403" x="-350" y="-350"/><use xlink:href="#L1_403" x="0" y="-350"/><use xlink:href="#L1_403" x="350" y="-350"/><use xlink:href="#L1_403" x="-350" y="0"/><use xlink:href="#L1_403" x="0" y="0"/><use xlink:href="#L1_403" x="350" y="0"/><use xlink:href="#L1_403" x="-350" y="350"/><use xlink:href="#L1_403" x="0" y="350"/><use xlink:href="#L1_403" x="350" y="350"/></pattern><rect x="0" y="0" width="100%" height="100%" fill="url(#pattern_L1_403)"/></g><g fi:class="KUsePattern" opacity="0.6"><pattern id="pattern_L1_404" width="350" height="350" patternUnits="userSpaceOnUse"><use xlink:href="#L1_404" x="-350" y="-350"/><use xlink:href="#L1_404" x="0" y="-350"/><use xlink:href="#L1_404" x="350" y="-350"/><use xlink:href="#L1_404" x="-350" y="0"/><use xlink:href="#L1_404" x="0" y="0"/><use xlink:href="#L1_404" x="350" y="0"/><use xlink:href="#L1_404" x="-350" y="350"/><use xlink:href="#L1_404" x="0" y="350"/><use xlink:href="#L1_404" x="350" y="350"/></pattern><rect x="0" y="0" width="100%" height="100%" fill="url(#pattern_L1_404)"/></g><g fi:class="KUsePattern" transform="matrix(1 0 0 1 20 20)" opacity="0.6"><pattern id="pattern_UNKNOWN" width="350" height="350" patternUnits="userSpaceOnUse"><use xlink:href="#UNKNOWN" x="-350" y="-350"/><use xlink:href="#UNKNOWN" x="0" y="-350"/><use xlink:href="#UNKNOWN" x="350" y="-350"/><use xlink:href="#UNKNOWN" x="-350" y="0"/><use xlink:href="#UNKNOWN" x="0" y="0"/><use xlink:href="#UNKNOWN" x="350" y="0"/><use xlink:href="#UNKNOWN" x="-350" y="350"/><use xlink:href="#UNKNOWN" x="0" y="350"/><use xlink:href="#UNKNOWN" x="350" y="350"/></pattern><rect x="0" y="0" width="100%" height="100%" fill="url(#pattern_UNKNOWN)"/></g><g fi:class="KUsePattern" opacity="0.6"><pattern id="pattern_L1_405" width="350" height="350" patternUnits="userSpaceOnUse"><use xlink:href="#L1_405" x="-350" y="-350"/><use xlink:href="#L1_405" x="0" y="-350"/><use xlink:href="#L1_405" x="350" y="-350"/><use xlink:href="#L1_405" x="-350" y="0"/><use xlink:href="#L1_405" x="0" y="0"/><use xlink:href="#L1_405" x="350" y="0"/><use xlink:href="#L1_405" x="-350" y="350"/><use xlink:href="#L1_405" x="0" y="350"/><use xlink:href="#L1_405" x="350" y="350"/></pattern><rect x="0" y="0" width="100%" height="100%" fill="url(#pattern_L1_405)"/></g></svg>